# xmcd
#
# Track frame offsets: 
#        150
#        3001
#        12972
#        17331
#        26960
#        29604
#        39222
#        43431
#        52681
#        59998
#        62463
#        65629
#        71427
#        85944
#        88878
#        110988
#        116204
#        130879
#        135164
#        141380
#        150102
#        158433
#        161579
#        165902
#        177876
#        181612
#
# Disc length: 2697 seconds
#
# Revision: 0
# Processed by: cddbd v1.5.2PL0 Copyright (c) Steve Scherf et al.
# Submitted via: ExactAudioCopy v0.99pb5
#
DISCID=4f0a871a
DTITLE=Rafa³ Blechacz - Fryderyk Chopin Vol. 16 Preludia
DYEAR=2010
DGENRE=Classical
TTITLE0=Preludium C-dur op. 28 nr 1 (Agitato)
TTITLE1=Preludium a-moll op. 28 nr 2 (Lento)
TTITLE2=Preludium G-dur op. 28 nr 3 (Vivace)
TTITLE3=Preludium e-moll op. 28 nr 4 (Largo)
TTITLE4=Preludium D-dur op. 28 nr 5 (Molto allegro)
TTITLE5=Preludium h-moll op. 28 nr 6 (Lento assai)
TTITLE6=Preludium A-dur op. 28 nr 7 (Andantino)
TTITLE7=Preludium fis-moll op. 28 nr 8 (Molto agitato)
TTITLE8=Preludium E-dur op. 28 nr 9 (Largo)
TTITLE9=Preludium cis-moll op. 28 nr 10 (Molto allegro)
TTITLE10=Preludium H-dur op. 28 nr 11 (Vivace)
TTITLE11=Preludium gis-moll op. 28 nr 12 (Presto)
TTITLE12=Preludium Fis-dur op. 28 nr 13 (Lento)
TTITLE13=Preludium es-moll op. 28 nr 14 (Allegro)
TTITLE14=Preludium Des-dur op. 28 nr 15 (Sostenuto)
TTITLE15=Preludium b-moll op. 28 nr 16 (Presto con fuoco)
TTITLE16=Preludium As-dur op. 28 nr 17 (Allegretto)
TTITLE17=Preludium f-moll op. 28 nr 18 (Molto allegro)
TTITLE18=Preludium Es-dur op. 28 nr 19 (Vivace)
TTITLE19=Preludium c-moll op. 28 nr 20 (Largo)
TTITLE20=Preludium B-dur op. 28 nr 21 (Cantabile)
TTITLE21=Preludium g-moll op. 28 nr 22 (Molto agitato)
TTITLE22=Preludium F-dur op. 28 nr 23 (Moderato)
TTITLE23=Preludium d-moll op. 28 nr 24 (Allegro appassionato)
TTITLE24=Preludium As-dur op. posth. (Presto con leggierezza)
TTITLE25=Preludium cis-moll op. 45 (Sostenuto)
EXTD=
EXTT0=
EXTT1=
EXTT2=
EXTT3=
EXTT4=
EXTT5=
EXTT6=
EXTT7=
EXTT8=
EXTT9=
EXTT10=
EXTT11=
EXTT12=
EXTT13=
EXTT14=
EXTT15=
EXTT16=
EXTT17=
EXTT18=
EXTT19=
EXTT20=
EXTT21=
EXTT22=
EXTT23=
EXTT24=
EXTT25=
PLAYORDER=
